<mxfile host="app.diagrams.net" modified="2023-11-17T02:53:14.001Z" agent="Mozilla/5.0 (Macintosh; Intel Mac OS X 10_15_7) AppleWebKit/537.36 (KHTML, like Gecko) Chrome/119.0.0.0 Safari/537.36" version="22.1.2" etag="rpjw5N2jkzdTSS5o67pC" type="github">
  <diagram name="Page-1" id="rDAYi5u21aFT-AXQACWM">
    <mxGraphModel>
      <root>
        <mxCell id="0" />
        <mxCell id="1" parent="0" />
      </root>
    </mxGraphModel>
  </diagram>
</mxfile>
